# xmcd
#
# Track frame offsets:
#	150
#	19443
#	33549
#	49849
#	68846
#	87684
#	104696
#	116670
#	135605
#
# Disc length: 2070
#
# Revision: 1
# Processed by: cddbd v1.5.1PL0 Copyright (c) Steve Scherf et al.
# Submitted via: dBpowerAMP V4.0
# Normalized: r0:TRMNUM
#
DISCID=86081409
DTITLE=Various Artist - Singing in the Playground
DYEAR=2003
DGENRE=Pop
TTITLE0=ทอมบอย Tom Boy Fea.บุรินทร์ บุญวิสุทธิ์
TTITLE1=กาแฟ Coffee Fea.ปิยะ ศาสตรวาหา
TTITLE2=ไม่มีความหมาย Meaningless Fea.วิน ศิริวงศ์
TTITLE3=เข้าใจ Understand Fea.อดุลย์ รัชดาภิสิทธิ์
TTITLE4=เหมือนเดิม Good fellas Fea.Friday
TTITLE5=เริ่มใหม่ไไหม If I could Fea.กัญญาฐา ชานนทิวัตถ์
TTITLE6=ไม่อยากกลับไปจริงๆ Really don't want to go back Fea.2 days ago kids
TTITLE7=Insecure Fea.Good นันทวิทย์
TTITLE8=รักกันเถอะ Love Lingers Fea.2 days ago kids
EXTD=
EXTT0=
EXTT1=
EXTT2=
EXTT3=
EXTT4=
EXTT5=
EXTT6=
EXTT7=
EXTT8=
PLAYORDER=
